# xmcd CD database file
#
# Track frame offsets:
#	150
#	17282
#	31797
#	51028
#	66080
#	83895
#	104737
#	127724
#	140777
#	158534
#	174517
#
# Disc length: 2618 seconds
#
# Revision: 0
# Processed by: cddbd v1.5.1PL0 Copyright (c) Steve Scherf et al.
# Submitted via: CDex 1.51
#
DISCID=820a380b
DTITLE=Tommy Brown - Remember Me
DYEAR=2004
DGENRE=Blues
TTITLE0=Remember Me
TTITLE1=Chains of Love
TTITLE2=High Maintenance Woman
TTITLE3=Women and Cadillacs (V-8 Baby)
TTITLE4=Blues Singer
TTITLE5=One Night of Wrong
TTITLE6=How Ya Gonna Leave Me
TTITLE7=Honly Tonk
TTITLE8=She Left Me The Blues
TTITLE9=Gotta Find Me A Lover
TTITLE10=Ganbler's Prayer
EXTD=YEAR: 2004
EXTT0=
EXTT1=
EXTT2=
EXTT3=
EXTT4=
EXTT5=
EXTT6=
EXTT7=
EXTT8=
EXTT9=
EXTT10=
PLAYORDER=
